Coordinates
version=1
nRows=18
nColumns=63
inDegrees=yes

Units are S.I. units (second, meters, Newtons, ...)
If the header above contains a line with 'inDegrees', this indicates whether rotational values are in degrees (yes) or radians (no).

endheader
time	pelvis_tilt	pelvis_list	pelvis_rotation	pelvis_tx	pelvis_ty	pelvis_tz	hip_flexion_r	hip_adduction_r	hip_rotation_r	knee_angle_r	knee_angle_r_beta	ankle_angle_r	subtalar_angle_r	mtp_angle_r	hip_flexion_l	hip_adduction_l	hip_rotation_l	knee_angle_l	knee_angle_l_beta	ankle_angle_l	subtalar_angle_l	mtp_angle_l	L5_S1_Flex_Ext	L5_S1_Lat_Bending	L5_S1_axial_rotation	L4_L5_Flex_Ext	L4_L5_Lat_Bending	L4_L5_axial_rotation	L3_L4_Flex_Ext	L3_L4_Lat_Bending	L3_L4_axial_rotation	L2_L3_Flex_Ext	L2_L3_Lat_Bending	L2_L3_axial_rotation	L1_L2_Flex_Ext	L1_L2_Lat_Bending	L1_L2_axial_rotation	L1_T12_Flex_Ext	L1_T12_Lat_Bending	L1_T12_axial_rotation	Abs_r3	Abs_r2	Abs_r1	Abs_t1	Abs_t2	neck_flexion	neck_bending	neck_rotation	arm_flex_r	arm_add_r	arm_rot_r	elbow_flex_r	pro_sup_r	wrist_flex_r	wrist_dev_r	arm_flex_l	arm_add_l	arm_rot_l	elbow_flex_l	pro_sup_l	wrist_flex_l	wrist_dev_l
1.250000	-0.578081	-0.555109	100.025786	0.267600	0.624731	0.965645	6.631127	-1.703071	-8.990400	13.396000	0.233804	26.172766	8.866549	0.000000	2.614984	-0.081996	2.908140	4.379612	0.076439	20.956882	0.866990	0.000000	0.015253	-0.026550	-0.703320	0.028326	-0.035311	-0.747278	0.025058	-0.064553	-0.747278	0.017432	-0.064553	-0.615405	0.014164	-0.054141	-0.571448	0.008715	-0.041126	-0.527490	0.108948	-0.300338	-3.911655	0.000000	0.000000	20.583640	2.819484	8.258200	-1.219056	-18.574450	-4.497001	96.652370	78.751132	-4.556972	2.558230	4.579934	-14.158343	44.747851	48.717155	70.654827	13.219732	16.629014
1.266667	-0.569102	-0.579252	99.600144	0.268657	0.625048	0.965782	6.802717	-1.635637	-8.661614	13.482062	0.235306	26.348863	9.172521	0.000000	2.632084	-0.157594	2.106938	4.496780	0.078484	20.806654	1.406190	0.000000	0.019435	-0.036176	-0.623188	0.036093	-0.048114	-0.662138	0.031930	-0.087957	-0.662138	0.022212	-0.087957	-0.545290	0.018047	-0.073769	-0.506341	0.011105	-0.056036	-0.467391	0.138823	-0.409226	-3.465987	0.000000	0.000000	20.422918	3.097497	8.285201	-1.514912	-18.559645	-5.813713	98.930487	78.448392	-4.536780	1.316160	4.410253	-14.211710	44.254527	48.709510	71.970567	13.927382	17.000886
1.283333	-0.564917	-0.614666	99.145646	0.269735	0.625373	0.965935	6.964560	-1.570489	-8.345862	13.513417	0.235854	26.495556	9.539122	0.000000	2.655129	-0.226151	1.343124	4.602771	0.080334	20.640426	1.872530	0.000000	0.023662	-0.046121	-0.542533	0.043942	-0.061341	-0.576442	0.038874	-0.112139	-0.576442	0.027043	-0.112139	-0.474717	0.021972	-0.094050	-0.440808	0.013520	-0.071442	-0.406900	0.169014	-0.521732	-3.017407	0.000000	0.000000	20.286131	3.387469	8.342655	-1.865729	-18.523165	-7.133231	101.171020	78.484281	-4.336650	0.050253	4.308492	-14.269391	44.061013	48.676577	72.938288	14.351402	17.104218
1.300000	-0.566484	-0.657803	98.673584	0.270814	0.625707	0.966105	7.108528	-1.509698	-8.052012	13.488020	0.235410	26.605070	9.958714	0.000000	2.680118	-0.285756	0.668072	4.689242	0.081843	20.455430	2.212847	0.000000	0.026529	-0.056149	-0.462677	0.049268	-0.074678	-0.491595	0.043585	-0.136521	-0.491595	0.030320	-0.136521	-0.404843	0.024635	-0.114499	-0.375925	0.015159	-0.086975	-0.347008	0.189496	-0.635170	-2.573272	0.000000	0.000000	20.191179	3.672671	8.416688	-2.261252	-18.464835	-8.502287	103.392073	78.814696	-3.883962	-1.019331	4.261926	-14.329002	44.047737	48.632874	73.644158	14.555151	17.013918
1.316667	-0.576874	-0.711165	98.205874	0.271857	0.626042	0.966292	7.231506	-1.457951	-7.777675	13.405028	0.233962	26.666835	10.391083	0.000000	2.712781	-0.331052	0.105863	4.753125	0.082958	20.259389	2.426827	0.000000	0.028320	-0.066384	-0.381623	0.052594	-0.088291	-0.405474	0.046528	-0.161407	-0.405474	0.032367	-0.161407	-0.333920	0.026298	-0.135371	-0.310069	0.016182	-0.102829	-0.286217	0.202290	-0.750952	-2.122472	0.000000	0.000000	20.138004	3.931015	8.472734	-2.685821	-18.398633	-9.951965	105.639359	79.226955	-3.155756	-1.599574	4.307910	-14.406496	44.276549	48.605091	73.970923	14.504512	16.754486
1.333333	-0.598915	-0.769523	97.732673	0.272864	0.626375	0.966498	7.331300	-1.415075	-7.486324	13.274093	0.231677	26.665061	10.779323	0.000000	2.744342	-0.359580	-0.368264	4.783022	0.083479	20.063688	2.527602	0.000000	0.028088	-0.076702	-0.299279	0.052163	-0.102013	-0.317984	0.046146	-0.186493	-0.317984	0.032102	-0.186493	-0.261869	0.026083	-0.156410	-0.243164	0.016050	-0.118811	-0.224459	0.200633	-0.867666	-1.664501	0.000000	0.000000	20.129261	4.162066	8.524788	-3.046237	-18.354996	-11.415784	107.888575	79.391361	-2.086569	-1.570479	4.389029	-14.483848	44.502652	48.598739	74.179784	14.345257	16.445920
1.350000	-0.633530	-0.826588	97.258296	0.273818	0.626700	0.966733	7.405541	-1.383216	-7.169987	13.110952	0.228829	26.590721	11.094686	0.000000	2.772282	-0.372674	-0.812358	4.782633	0.083473	19.892867	2.599128	0.000000	0.025626	-0.087090	-0.212200	0.047590	-0.115830	-0.225462	0.042101	-0.211752	-0.225462	0.029288	-0.211752	-0.185675	0.023796	-0.177595	-0.172412	0.014643	-0.134903	-0.159150	0.183045	-0.985185	-1.180191	0.000000	0.000000	20.150196	4.351788	8.541122	-3.278210	-18.354067	-12.883648	110.125970	79.338032	-0.785109	-0.879024	4.513661	-14.553452	44.731684	48.607276	74.288129	14.115657	16.124820
1.366667	-0.680636	-0.854284	96.799841	0.274672	0.627056	0.967028	7.424931	-1.365859	-6.869204	12.921240	0.225518	26.426871	11.356078	0.000000	2.773626	-0.370186	-1.214005	4.755536	0.083000	19.736484	2.623123	0.000000	0.018108	-0.096839	-0.127309	0.033629	-0.128796	-0.135266	0.029750	-0.235455	-0.135266	0.020696	-0.235455	-0.111395	0.016815	-0.197475	-0.103438	0.010347	-0.150004	-0.095482	0.129346	-1.095467	-0.708054	0.000000	0.000000	20.161771	4.486325	8.534831	-3.261086	-18.441992	-14.234342	112.253712	79.026577	0.686822	0.349787	4.723661	-14.643114	45.154062	48.609909	74.179700	13.735875	15.653167
1.383333	-0.750794	-0.887397	96.359369	0.275477	0.627363	0.967335	7.436912	-1.370513	-6.517009	12.733763	0.222246	26.198009	11.468066	0.000000	2.780867	-0.341324	-1.652295	4.698178	0.081999	19.643863	2.723289	0.000000	0.011071	-0.108723	-0.038665	0.020559	-0.144602	-0.041081	0.018188	-0.264349	-0.041081	0.012653	-0.264349	-0.033832	0.010280	-0.221708	-0.031415	0.006326	-0.168412	-0.028999	0.079077	-1.229897	-0.215043	0.000000	0.000000	20.175299	4.643922	8.577394	-3.003018	-18.544055	-15.564621	114.302405	78.884170	2.262922	2.118539	4.886334	-14.697602	45.359366	48.639268	74.256870	13.433132	15.318659
1.400000	-0.830269	-0.896914	95.957575	0.276180	0.627666	0.967677	7.411688	-1.387012	-6.154793	12.546339	0.218975	25.906455	11.476040	0.000000	2.771601	-0.300342	-2.082286	4.622823	0.080683	19.596680	2.849942	0.000000	0.001843	-0.121174	0.050106	0.003423	-0.161162	0.053237	0.003028	-0.294624	0.053237	0.002107	-0.294624	0.043842	0.001712	-0.247099	0.040711	0.001053	-0.187699	0.037579	0.013167	-1.370750	0.278672	0.000000	0.000000	20.169918	4.770557	8.574778	-2.480461	-18.743253	-16.739171	116.194548	78.772086	3.680748	4.231763	5.071634	-14.735360	45.571984	48.661776	74.385526	13.131229	15.072015
1.416667	-0.928072	-0.888465	95.575201	0.276817	0.627957	0.968018	7.365581	-1.426448	-5.793636	12.375404	0.215992	25.596980	11.443882	0.000000	2.739140	-0.240159	-2.564850	4.521557	0.078916	19.604369	3.071489	0.000000	-0.008421	-0.135408	0.144880	-0.015639	-0.180093	0.153935	-0.013835	-0.329232	0.153935	-0.009625	-0.329232	0.126770	-0.007820	-0.276125	0.117715	-0.004812	-0.209748	0.108660	-0.060152	-1.531767	0.805781	0.000000	0.000000	20.142338	4.899840	8.594362	-1.715811	-19.005961	-17.821946	117.931823	78.719282	5.013583	6.770374	5.265559	-14.753493	45.773813	48.662332	74.642671	12.883904	14.860695
1.433333	-1.019657	-0.846444	95.278646	0.277298	0.628268	0.968373	7.274758	-1.462265	-5.450512	12.202125	0.212967	25.282780	11.329213	0.000000	2.683477	-0.182147	-3.012934	4.416268	0.077078	19.637088	3.323331	0.000000	-0.021305	-0.148797	0.222113	-0.039566	-0.197900	0.235996	-0.035003	-0.361784	0.235996	-0.024350	-0.361784	0.194349	-0.019784	-0.303426	0.180467	-0.012174	-0.230486	0.166585	-0.152183	-1.683218	1.235328	0.000000	0.000000	20.082002	4.958969	8.561996	-0.669746	-19.384545	-18.629810	119.436496	78.506713	6.121751	9.529334	5.435022	-14.764107	45.943997	48.652805	74.889343	12.631717	14.685813
1.450000	-1.094810	-0.782625	95.086526	0.277595	0.628568	0.968672	7.152674	-1.484169	-5.120590	12.028550	0.209938	25.004675	11.095569	0.000000	2.618230	-0.135735	-3.373417	4.323160	0.075453	19.717704	3.586661	0.000000	-0.035204	-0.160462	0.282118	-0.065377	-0.213415	0.299751	-0.057837	-0.390148	0.299751	-0.040235	-0.390148	0.246853	-0.032690	-0.327214	0.229221	-0.020116	-0.248556	0.211589	-0.251458	-1.815180	1.569057	0.000000	0.000000	20.023960	4.991765	8.525046	0.573624	-19.858847	-19.202749	120.723322	78.482673	6.965879	12.201791	5.537448	-14.748349	45.985282	48.658234	75.184002	12.408726	14.591967
1.466667	-1.136467	-0.716012	94.932656	0.277821	0.628864	0.968935	7.043455	-1.477133	-4.791757	11.874503	0.207249	24.767781	10.841338	0.000000	2.560456	-0.121176	-3.700268	4.246379	0.074113	19.834467	3.852106	0.000000	-0.047485	-0.169463	0.345642	-0.088185	-0.225385	0.367245	-0.078013	-0.412032	0.367245	-0.054271	-0.412032	0.302437	-0.044095	-0.345568	0.280834	-0.027133	-0.262498	0.259232	-0.339182	-1.916997	1.922357	0.000000	0.000000	19.968385	5.013845	8.410886	1.930124	-20.371509	-19.642566	121.776538	78.763694	7.637945	14.537147	5.654991	-14.690315	46.018385	48.603165	75.684929	12.328181	14.570334
1.483333	-1.153041	-0.649989	94.810040	0.277944	0.629155	0.969132	6.943608	-1.454112	-4.482903	11.732943	0.204778	24.585874	10.603674	0.000000	2.499821	-0.126877	-4.032155	4.173491	0.072841	19.976410	4.150996	0.000000	-0.057903	-0.175904	0.407243	-0.107532	-0.233953	0.432696	-0.095129	-0.427694	0.432696	-0.066178	-0.427694	0.356338	-0.053769	-0.358704	0.330885	-0.033086	-0.272476	0.305432	-0.413598	-1.989864	2.264965	0.000000	0.000000	19.930793	5.006030	8.243918	3.391219	-20.926961	-19.866655	122.609320	79.110126	8.145726	16.524995	5.739201	-14.590848	45.985296	48.490588	76.349944	12.336010	14.479392
1.500000	-1.143166	-0.576189	94.791753	0.277926	0.629456	0.969254	6.826890	-1.410057	-4.223684	11.591510	0.202310	24.446099	10.307065	0.000000	2.443159	-0.156194	-4.275299	4.127471	0.072038	20.128155	4.454453	0.000000	-0.068108	-0.180636	0.452958	-0.126484	-0.240246	0.481268	-0.111895	-0.439198	0.481268	-0.077841	-0.439198	0.396339	-0.063246	-0.368353	0.368029	-0.038917	-0.279805	0.339719	-0.486492	-2.043391	2.519218	0.000000	0.000000	19.914034	4.982551	8.007095	4.895929	-21.489144	-19.873304	123.230793	79.672709	8.434989	17.938659	5.777061	-14.469457	45.852849	48.363800	77.106332	12.432544	14.428078
1.516667	-1.106402	-0.505444	94.839434	0.277811	0.629763	0.969284	6.705986	-1.345390	-4.010155	11.454250	0.199914	24.322509	9.986457	0.000000	2.392909	-0.211805	-4.491019	4.099831	0.071556	20.294291	4.808488	0.000000	-0.076053	-0.184329	0.498501	-0.141239	-0.245157	0.529657	-0.124948	-0.448177	0.529657	-0.086922	-0.448177	0.436188	-0.070623	-0.375883	0.405032	-0.043457	-0.285525	0.373876	-0.543242	-2.085163	2.772511	0.000000	0.000000	19.921688	4.933966	7.598697	6.333488	-22.029469	-19.698380	123.680167	79.945388	8.591390	18.685867	5.825748	-14.326215	45.764930	48.192261	77.902999	12.583127	14.384748
1.533333	-1.047586	-0.439229	94.982201	0.277578	0.630068	0.969224	6.573023	-1.266570	-3.872279	11.319442	0.197562	24.199041	9.623890	0.000000	2.355486	-0.285844	-4.614659	4.094844	0.071469	20.452577	5.151800	0.000000	-0.081855	-0.187795	0.537097	-0.152014	-0.249768	0.570666	-0.134480	-0.456606	0.570666	-0.093553	-0.456606	0.469960	-0.076011	-0.382952	0.436391	-0.046772	-0.290895	0.402823	-0.584685	-2.124380	2.987173	0.000000	0.000000	19.949913	4.883607	7.042393	7.642834	-22.522089	-19.357703	124.004244	80.224885	8.579061	18.770874	5.875375	-14.164051	45.676111	47.996786	78.723010	12.828733	14.413557
